<?xml version="1.0" encoding="UTF-8" standalone="no"?>
<svg
   xmlns:dc="http://purl.org/dc/elements/1.1/"
   xmlns:cc="http://creativecommons.org/ns#"
   xmlns:rdf="http://www.w3.org/1999/02/22-rdf-syntax-ns#"
   xmlns:svg="http://www.w3.org/2000/svg"
   xmlns="http://www.w3.org/2000/svg"
   xmlns:sodipodi="http://sodipodi.sourceforge.net/DTD/sodipodi-0.dtd"
   xmlns:inkscape="http://www.inkscape.org/namespaces/inkscape"
   enable-background="new 0 0 64 64"
   height="64px"
   id="Layer_1"
   version="1.1"
   viewBox="0 0 64 64"
   width="64px"
   xml:space="preserve"
   sodipodi:docname="clipboard-text-outline-symbolic.svg"
   inkscape:version="1.0.1 (3bc2e813f5, 2020-09-07)"><metadata
     id="metadata19"><rdf:RDF><cc:Work
         rdf:about=""><dc:format>image/svg+xml</dc:format><dc:type
           rdf:resource="http://purl.org/dc/dcmitype/StillImage" /></cc:Work></rdf:RDF></metadata><defs
     id="defs17" /><sodipodi:namedview
     pagecolor="#ffffff"
     bordercolor="#666666"
     borderopacity="1"
     objecttolerance="10"
     gridtolerance="10"
     guidetolerance="10"
     inkscape:pageopacity="0"
     inkscape:pageshadow="2"
     inkscape:window-width="1600"
     inkscape:window-height="866"
     id="namedview15"
     showgrid="false"
     inkscape:zoom="7.745029"
     inkscape:cx="43.752413"
     inkscape:cy="42.203032"
     inkscape:window-x="0"
     inkscape:window-y="34"
     inkscape:window-maximized="1"
     inkscape:current-layer="Layer_1" /><g
     id="g12"
     transform="matrix(1.2397674,0,0,1.2114396,-7.3547916,-6.7841229)"><path
       d="m 23.564,14.456 h 16.857 c 0.553,0 1,-0.447 1,-1 V 10.295 H 36.992 V 7.73 c 0,-1.104 -0.896,-2 -2,-2 h -6 c -1.104,0 -2,0.896 -2,2 v 2.565 h -4.428 v 3.161 c 0,0.553 0.447,1 1,1 z"
       id="path2" /><path
       d="m 43.421,10.295 v 3.161 c 0,1.654 -1.346,3 -3,3 H 23.565 c -1.654,0 -3,-1.346 -3,-3 V 10.295 H 11.993 V 54.27 c 0,2.209 1.791,4 4,4 h 32 c 2.209,0 4,-1.791 4,-4 V 10.295 Z m 3.571,42.975 h -30 V 20.929 h 30 z"
       id="path4" /><rect
       height="4"
       width="19.117001"
       x="22.42"
       y="26.038"
       id="rect6" /><rect
       height="4"
       width="19.117001"
       x="22.514"
       y="34.132999"
       id="rect8" /><rect
       height="4"
       width="7.7519999"
       x="22.608"
       y="42.229"
       id="rect10" /></g></svg>
