<?xml version="1.0" encoding="UTF-8" standalone="no"?>
<svg
   xmlns:dc="http://purl.org/dc/elements/1.1/"
   xmlns:cc="http://creativecommons.org/ns#"
   xmlns:rdf="http://www.w3.org/1999/02/22-rdf-syntax-ns#"
   xmlns:svg="http://www.w3.org/2000/svg"
   xmlns="http://www.w3.org/2000/svg"
   xmlns:sodipodi="http://sodipodi.sourceforge.net/DTD/sodipodi-0.dtd"
   xmlns:inkscape="http://www.inkscape.org/namespaces/inkscape"
   enable-background="new 0 0 64 64"
   height="64px"
   id="Layer_1"
   version="1.1"
   viewBox="0 0 64 64"
   width="64px"
   xml:space="preserve"
   sodipodi:docname="clipboard-outline-broken-symbolic.svg"
   inkscape:version="1.0.1 (3bc2e813f5, 2020-09-07)"><metadata
     id="metadata13"><rdf:RDF><cc:Work
         rdf:about=""><dc:format>image/svg+xml</dc:format><dc:type
           rdf:resource="http://purl.org/dc/dcmitype/StillImage" /></cc:Work></rdf:RDF></metadata><defs
     id="defs11" /><sodipodi:namedview
     pagecolor="#ffffff"
     bordercolor="#666666"
     borderopacity="1"
     objecttolerance="10"
     gridtolerance="10"
     guidetolerance="10"
     inkscape:pageopacity="0"
     inkscape:pageshadow="2"
     inkscape:window-width="1600"
     inkscape:window-height="829"
     id="namedview9"
     showgrid="false"
     inkscape:zoom="7.745029"
     inkscape:cx="61.834866"
     inkscape:cy="27.156841"
     inkscape:window-x="0"
     inkscape:window-y="32"
     inkscape:window-maximized="1"
     inkscape:current-layer="Layer_1"
     inkscape:document-rotation="0" /><g
     id="g6"
     transform="matrix(1.2389875,0,0,1.2105966,-7.2566581,-6.7963618)"><path
       d="m 23.572,14.456 h 16.857 c 0.553,0 1,-0.447 1,-1 V 10.295 H 37 V 7.73 c 0,-1.104 -0.896,-2 -2,-2 h -6 c -1.104,0 -2,0.896 -2,2 v 2.565 h -4.428 v 3.161 c 0,0.553 0.447,1 1,1 z"
       id="path2" /><path
       d="m 43.429,10.295 v 3.161 c 0,1.654 -1.346,3 -3,3 H 23.572 c -1.654,0 -3,-1.346 -3,-3 V 10.295 H 12 V 54.27 c 0,2.209 1.791,4 4,4 h 32 c 2.209,0 4,-1.791 4,-4 V 10.295 Z M 47,53.27 H 17 V 20.929 h 30 z"
       id="path4" /></g><ellipse
     style="fill:#1a1a1a;fill-rule:evenodd"
     id="path9"
     cx="46.558601"
     cy="50.18161"
     r="14" /><path
     style="fill:#1a1a1a;stroke:#000000;stroke-width:1.78395px;stroke-linecap:butt;stroke-linejoin:miter;stroke-opacity:1"
     d="M 20.954208,48.360884 C 44.941538,24.274228 43.680892,25.410017 43.680892,25.410017 l 2.930564,4.234572 -22.23754,22.668504 z"
     id="path11" /><path
     style="fill:#1a1a1a;stroke:#000000;stroke-width:1.81462px;stroke-linecap:butt;stroke-linejoin:miter;stroke-opacity:1"
     d="M 45.69756,48.344762 C 21.135971,24.005381 22.426796,25.153089 22.426796,25.153089 l -3.000722,4.279 22.769909,22.906352 z"
     id="path11-0" /></svg>
